<?xml version="1.0" encoding="UTF-8"?>
<svg id="Livello_2" data-name="Livello 2" xmlns="http://www.w3.org/2000/svg" viewBox="0 0 782.572 263.055">
  <defs>
    <style>
      .cls-1 {
        fill: #c74235;
      }

      .cls-2 {
        fill: #314c43;
      }

      .cls-3 {
        fill: #0e3a2d;
      }

      .cls-4 {
        fill: #ff7e70;
      }
    </style>
  </defs>
  <g id="Livello_1-2" data-name="Livello 1">
    <g>
      <polygon class="cls-4" points="781.428 14.545 625.369 0 469.311 13.292 313.252 0 157.197 13.292 0 .129 1.144 178.143 157.203 191.403 313.262 178.111 469.32 191.403 625.375 178.111 782.572 191.274 781.428 14.545"/>
      <polygon class="cls-1" points="781.428 28.949 625.369 14.404 469.311 27.696 313.252 14.404 157.197 27.696 0 14.533 1.144 192.547 157.203 205.807 313.262 192.515 469.32 205.807 625.375 192.515 782.572 205.678 781.428 28.949"/>
      <polygon class="cls-2" points="781.428 51.247 625.369 36.702 469.311 49.993 313.252 36.702 157.197 49.993 0 36.831 1.144 214.845 157.203 228.105 313.262 214.813 469.32 228.105 625.375 214.813 782.572 227.975 781.428 51.247"/>
      <polygon class="cls-3" points="781.428 86.197 625.369 71.652 469.311 84.943 313.252 71.652 157.197 84.943 0 71.781 1.144 249.795 157.203 263.055 313.262 249.763 469.32 263.055 625.375 249.763 782.572 262.925 781.428 86.197"/>
    </g>
  </g>
</svg>