<?xml version="1.0" encoding="UTF-8"?>
<svg id="Livello_2" data-name="Livello 2" xmlns="http://www.w3.org/2000/svg" viewBox="0 0 633.333 196.306">
  <defs>
    <style>
      .cls-1 {
        fill: none;
        stroke: #f75a3d;
        stroke-miterlimit: 10;
        stroke-width: 12px;
      }
    </style>
  </defs>
  <g id="Livello_1-2" data-name="Livello 1">
    <g>
      <path class="cls-1" d="M0,6c63.332,0,63.332,42,126.664,42S189.996,6,253.329,6s63.332,42,126.664,42S443.328,6,506.663,6s63.335,42,126.67,42"/>
      <path class="cls-1" d="M0,53.435c63.332,0,63.332,42,126.664,42s63.333-42,126.665-42,63.332,42,126.664,42,63.335-42,126.67-42,63.335,42,126.67,42"/>
      <path class="cls-1" d="M0,100.871c63.332,0,63.332,42,126.664,42s63.333-42,126.665-42,63.332,42,126.664,42,63.335-42,126.67-42,63.335,42,126.67,42"/>
      <path class="cls-1" d="M0,148.306c63.332,0,63.332,42,126.664,42s63.333-42,126.665-42,63.332,42,126.664,42,63.335-42,126.67-42,63.335,42,126.67,42"/>
    </g>
  </g>
</svg>