<?xml version="1.0" encoding="UTF-8"?>
<svg id="Livello_2" data-name="Livello 2" xmlns="http://www.w3.org/2000/svg" viewBox="0 0 633.333 234.306">
  <defs>
    <style>
      .cls-1 {
        stroke: #b6d4ea;
      }

      .cls-1, .cls-2, .cls-3, .cls-4 {
        fill: none;
        stroke-miterlimit: 10;
        stroke-width: 50px;
      }

      .cls-2 {
        stroke: #f7f4ed;
      }

      .cls-3 {
        stroke: #fed260;
      }

      .cls-4 {
        stroke: #f85b3e;
      }
    </style>
  </defs>
  <g id="Livello_1-2" data-name="Livello 1">
    <g>
      <path class="cls-4" d="M0,25c63.332,0,63.332,42,126.664,42s63.333-42,126.665-42,63.332,42,126.664,42,63.335-42,126.67-42,63.335,42,126.67,42"/>
      <path class="cls-3" d="M0,72.435c63.332,0,63.332,42,126.664,42s63.333-42,126.665-42,63.332,42,126.664,42,63.335-42,126.67-42,63.335,42,126.67,42"/>
      <path class="cls-1" d="M0,119.871c63.332,0,63.332,42,126.664,42s63.333-42,126.665-42,63.332,42,126.664,42,63.335-42,126.67-42,63.335,42,126.67,42"/>
      <path class="cls-2" d="M0,167.306c63.332,0,63.332,42,126.664,42s63.333-42,126.665-42,63.332,42,126.664,42,63.335-42,126.67-42,63.335,42,126.67,42"/>
    </g>
  </g>
</svg>